<!-- Generator: Adobe Illustrator 19.0.0, SVG Export Plug-In  -->
<svg version="1.1"
	 xmlns="http://www.w3.org/2000/svg" xmlns:xlink="http://www.w3.org/1999/xlink" xmlns:a="http://ns.adobe.com/AdobeSVGViewerExtensions/3.0/"
	 x="0px" y="0px" width="48px" height="48px" viewBox="0 0 48 48" style="enable-background:new 0 0 48 48;" xml:space="preserve">
<style type="text/css">
	.st0{fill:#F9A51B;}
</style>
<defs>
</defs>
<path id="XMLID_15_" class="st0" d="M45.415-0.2342H2.7133c-1.4634,0-2.6492,1.1859-2.6492,2.6492v42.7017
	c0,1.463,1.1857,2.6494,2.6492,2.6494h22.9891V29.1778h-6.2552v-7.2442h6.2552v-5.3424c0-6.1997,3.7865-9.5757,9.3172-9.5757
	c2.6492,0,4.9263,0.1972,5.5898,0.2855v6.4793l-3.836,0.0017c-3.0076,0-3.59,1.4293-3.59,3.5267v4.625h7.1735l-0.9342,7.2442
	h-6.2392v18.5884H45.415c1.4628,0,2.649-1.1862,2.649-2.6494V2.415C48.064,0.9517,46.878-0.2342,45.415-0.2342z"/>
</svg>
