<!-- Generator: Adobe Illustrator 19.0.0, SVG Export Plug-In  -->
<svg version="1.1"
	 xmlns="http://www.w3.org/2000/svg" xmlns:xlink="http://www.w3.org/1999/xlink" xmlns:a="http://ns.adobe.com/AdobeSVGViewerExtensions/3.0/"
	 x="0px" y="0px" width="48px" height="48px" viewBox="0 0 48 48" style="enable-background:new 0 0 48 48;" xml:space="preserve">
<style type="text/css">
	.st0{fill:#F9A51B;}
</style>
<defs>
</defs>
<path id="XMLID_15_" class="st0" d="M16.0004,24c0-4.4183,3.5813-8,7.9996-8c4.4187,0,8.0004,3.5817,8.0004,8
	c0,4.4187-3.5817,8-8.0004,8C19.5817,32,16.0004,28.4187,16.0004,24 M11.6757,24c0,6.8069,5.5178,12.3239,12.3243,12.3239
	c6.8072,0,12.3243-5.517,12.3243-12.3239S30.8072,11.6753,24,11.6753C17.1935,11.6753,11.6757,17.1931,11.6757,24 M33.9315,11.1885
	c0,1.5902,1.2894,2.8804,2.88,2.8804c1.5906,0,2.88-1.2902,2.88-2.8804c0-1.5906-1.2894-2.8797-2.88-2.8797
	C35.2209,8.3088,33.9315,9.5979,33.9315,11.1885 M14.3024,43.5351c-2.34-0.1063-3.6108-0.4964-4.4561-0.8255
	c-1.1209-0.4361-1.9196-0.9558-2.7597-1.7958c-0.84-0.8396-1.3601-1.6388-1.7958-2.7593c-0.3287-0.8454-0.7193-2.1165-0.8263-4.4565
	C4.3491,31.1672,4.3243,30.4079,4.3243,24c0-6.4086,0.0248-7.1672,0.1403-9.6984c0.107-2.3397,0.4976-3.6104,0.8263-4.4561
	c0.4357-1.1205,0.9558-1.92,1.7958-2.7597s1.6388-1.3601,2.7597-1.7951c0.8454-0.3287,2.1161-0.7196,4.4561-0.8266
	C16.8327,4.3487,17.5921,4.3243,24,4.3243c6.4082,0,7.1672,0.0245,9.6988,0.1399c2.3393,0.107,3.6104,0.498,4.4561,0.8266
	c1.1205,0.4349,1.9196,0.9554,2.7597,1.7951c0.84,0.8396,1.3594,1.6391,1.7951,2.7597c0.3287,0.8457,0.7196,2.1165,0.8266,4.4561
	c0.1154,2.5311,0.1391,3.2897,0.1391,9.6984c0,6.4079-0.0237,7.1672-0.1391,9.698c-0.107,2.34-0.498,3.6111-0.8266,4.4565
	c-0.4357,1.1205-0.955,1.9196-1.7951,2.7593c-0.84,0.84-1.6391,1.3598-2.7597,1.7958c-0.8457,0.329-2.1168,0.7192-4.4561,0.8255
	C31.168,43.6512,30.409,43.6753,24,43.6753C17.5921,43.6753,16.8327,43.6512,14.3024,43.5351 M14.1052,0.1448
	C11.5504,0.2606,9.8061,0.6665,8.2794,1.26C6.701,1.873,5.363,2.6939,4.0289,4.0281C2.6939,5.3626,1.8734,6.7006,1.2608,8.279
	c-0.5939,1.5268-0.9998,3.2714-1.1156,5.8258C0.0279,16.6646,0,17.4817,0,24s0.0279,7.335,0.1452,9.8952
	c0.1158,2.5548,0.5217,4.299,1.1156,5.8251c0.6126,1.5787,1.4331,2.9171,2.7681,4.2513C5.363,45.3061,6.701,46.1262,8.2794,46.74
	c1.5268,0.5935,3.271,0.999,5.8258,1.1152C16.6654,47.9721,17.4821,48,24,48c6.5187,0,7.3358-0.0279,9.8956-0.1448
	c2.5544-0.1162,4.299-0.5217,5.8262-1.1152c1.5772-0.6138,2.9164-1.4339,4.2505-2.7685c1.3342-1.3342,2.1543-2.6725,2.7681-4.2513
	c0.5931-1.526,0.9994-3.2702,1.1156-5.8251C47.9729,31.335,48,30.5183,48,24s-0.0271-7.3354-0.1441-9.8952
	c-0.1162-2.5544-0.5224-4.299-1.1156-5.8258c-0.6138-1.5784-1.4339-2.9164-2.7681-4.2509C42.6381,2.6939,41.299,1.873,39.7218,1.26
	c-1.5272-0.5935-3.2718-0.9994-5.8262-1.1152C31.3358,0.0279,30.5187,0,24,0C17.4821,0,16.6654,0.0279,14.1052,0.1448"/>
</svg>
