<!-- Generator: Adobe Illustrator 19.0.0, SVG Export Plug-In  -->
<svg version="1.1"
	 xmlns="http://www.w3.org/2000/svg" xmlns:xlink="http://www.w3.org/1999/xlink" xmlns:a="http://ns.adobe.com/AdobeSVGViewerExtensions/3.0/"
	 x="0px" y="0px" width="300px" height="159.3754px" viewBox="0 0 300 159.3754" style="enable-background:new 0 0 300 159.3754;"
	 xml:space="preserve">
<style type="text/css">
	.st0{fill:#FFFFFF;}
	.st1{fill:#F9A51B;}
</style>
<defs>
</defs>
<g id="XMLID_24_">
	<path id="XMLID_90_" class="st0" d="M0,82.4515c0,23.3415,16.9292,44.3774,47.178,44.3774
		c23.6637,0,36.3203-13.9716,36.3203-13.9716L73.1436,92.9697c0,0-11.342,10.1899-23.1734,10.1899
		c-14.3004,0-21.2045-11.0132-21.2045-21.0392c0-10.0241,6.7388-20.2178,20.2183-20.2178c11.6661,0,19.8862,8.2229,19.8862,8.2229
		L80.871,51.0561c0,0-5.7278-7.7442-18.3523-10.6881c-7.5416-1.7612-19.394-3.4018-30.9799,0C11.0817,46.3743,0,64.0196,0,82.4515"
		/>
	<path id="XMLID_72_" class="st1" d="M109.3224,35.8365c9.7578,0,17.6714-7.9118,17.6714-17.6705
		c0-9.7596-7.9137-17.6682-17.6714-17.6682c-9.7601,0-17.6728,7.9086-17.6728,17.6682
		C91.6495,27.9246,99.5623,35.8365,109.3224,35.8365"/>
	<path id="XMLID_63_" class="st0" d="M172.9336,63.8762h17.7534V40.368h-17.7534V0h-27.6117v40.368h-11.6717v23.5082h10.8502
		v29.7492c0,28.4378,26.1351,33.5817,39.6108,33.5817c4.6041,0,7.7279-0.4922,7.7279-0.4922v-26.1826
		c0,0-1.4799,0.1616-3.7794,0.1616c-5.4288,0-15.1261-1.3151-15.1261-10.8479V63.8762z M284.5424,40.3424h-31.068L242.7927,79.656
		c-1.1525,4.6027-2.7936,12.6556-2.7936,12.6556h-0.332c0,0-1.6415-8.5465-3.1237-13.1502l-12.489-38.8191h-32.2186l35.9981,82.8729
		l-1.6439,3.9434c-2.957,7.2361-9.0415,8.5461-13.6419,8.5461c-4.1096,0-8.7109-3.1219-8.7109-3.1219l-9.0401,20.8767
		c0,0,8.5414,5.9159,19.7237,5.9159c13.4785,0,28.272-6.5753,35.3414-25.4789L284.5424,40.3424z"/>
	<path id="XMLID_43_" class="st0" d="M110.6924,54.0355c-2.5226,0-3.7846,0.8466-3.7846,2.5389
		c0,0.8308,0.3684,1.5088,1.1027,2.0359c0.7344,0.5267,2.0429,0.7898,3.9271,0.7898v-5.3162
		c-0.2235-0.0317-0.4312-0.0484-0.6221-0.0484C111.1236,54.0355,110.9159,54.0355,110.6924,54.0355z M86.8633,40.2078v86.4773
		h44.7635V40.2078H86.8633z M126.882,120.7109c-0.9896,0.0955-2.0112,0.143-3.0651,0.143c-1.0222,0-2.0122-0.0475-2.9701-0.143
		l-0.4792-2.8741H98.2388l-0.2873,2.9696c-0.9891,0.0955-2.0126,0.1439-3.066,0.1439c-1.0217,0-2.0117-0.0484-2.9691-0.1439
		c-0.1281-0.7344-0.231-1.5647-0.312-2.4909c-0.0792-0.9258-0.1434-1.8841-0.1919-2.8742c-0.0475-0.9896-0.0871-1.987-0.1197-2.9938
		c-0.0312-1.0054-0.047-1.9391-0.047-2.801l7.041,0.2864h22.0809l0.4792-2.8737c0.9579-0.0959,1.9479-0.1439,2.9701-0.1439
		c1.0538,0,2.0755,0.048,3.0651,0.1439V120.7109z M91.2458,96.7132c0-1.4683,0.4303-2.5542,1.2932-3.2574
		c0.8615-0.7017,1.8362-1.0533,2.9207-1.0533c1.1185,0,2.0844,0.3595,2.8988,1.0775c0.814,0.7186,1.2215,1.8124,1.2215,3.2816
		c0,1.4361-0.4149,2.5142-1.2461,3.2327c-0.8294,0.719-1.7878,1.0775-2.8742,1.0775c-0.5094,0-1.0203-0.088-1.5316-0.2636
		c-0.5113-0.1751-0.9658-0.4387-1.3649-0.7902c-0.3996-0.3512-0.7195-0.8061-0.9588-1.3645
		C91.365,98.0949,91.2458,97.4481,91.2458,96.7132z M126.882,103.6108c-0.9896,0.0959-2.0112,0.1439-3.0651,0.1439
		c-1.0222,0-2.0122-0.048-2.9701-0.1439l-0.4792-2.8741h-11.7345l-0.2883,2.9701c-0.9886,0.0955-2.0113,0.1434-3.0651,0.1434
		c-1.0212,0-2.0126-0.048-2.9692-0.1434c-0.128-0.7344-0.2319-1.5646-0.3115-2.4914c-0.0792-0.9253-0.1439-1.8827-0.1923-2.8737
		c-0.0471-0.9896-0.0871-1.98-0.1197-2.9696c-0.0321-0.9896-0.048-1.9163-0.048-2.7787l7.041,0.2403h11.6875l0.4792-2.8742
		c0.9579-0.0959,1.9479-0.1434,2.9701-0.1434c1.0538,0,2.0755,0.0475,3.0651,0.1434V103.6108z M126.882,86.5108
		c-0.9896,0.0959-2.0112,0.1443-3.0651,0.1443c-1.0222,0-2.0122-0.0484-2.9701-0.1443l-0.4792-2.8742h-11.8314v2.8742h-6.6573
		v-2.8742h-1.3886c-1.437,0-2.7228-0.2393-3.8563-0.7176c-1.133-0.4801-2.0997-1.126-2.8974-1.9405
		c-0.7986-0.814-1.4138-1.7798-1.845-2.8979c-0.4307-1.1167-0.6459-2.3144-0.6459-3.5917c0-0.2235,0.0079-0.5192,0.0233-0.8867
		c0.0168-0.367,0.0401-0.7427,0.0722-1.1256c0.0321-0.3832,0.0712-0.7502,0.1197-1.1018c0.0484-0.3507,0.0885-0.6385,0.1192-0.862
		c0.9262,0,1.9879,0.0317,3.1857,0.0955c1.1978,0.0642,2.388,0.176,3.568,0.3353c-0.0308,0.224-0.0703,0.5034-0.1197,0.8377
		c-0.048,0.3362-0.0866,0.6636-0.1192,0.9826c-0.0312,0.3194-0.0559,0.6231-0.0722,0.9099
		c-0.0149,0.2873-0.0233,0.4955-0.0233,0.6231c0,0.5747,0.1593,0.9579,0.4782,1.1488c0.3194,0.1918,0.8149,0.2878,1.4855,0.2878
		h1.9157v-5.1732c2.4267,0,4.647,0.1439,6.6573,0.4312v4.7419h11.8314l0.4792-2.9696c0.9579-0.0959,1.9479-0.1434,2.9701-0.1434
		c1.0538,0,2.0755,0.0475,3.0651,0.1434V86.5108z M124.1513,64.6529c-2.1384,2.2147-5.3315,3.3212-9.5789,3.3212
		c-2.2357,0-4.1753-0.2943-5.8195-0.8834c-1.6448-0.59-3.0101-1.3947-4.0956-2.4136c-1.0859-1.0198-1.8995-2.2231-2.4429-3.609
		c-0.543-1.3858-0.814-2.8751-0.814-4.4686c0-3.6648,0.9896-6.3248,2.9696-7.9817c1.9796-1.6569,4.6618-2.4848,8.0469-2.4848
		c0.5746,0,1.2773,0.0158,2.1067,0.0475c0.8312,0.0321,1.5977,0.0801,2.2995,0.1434v13.1241h0.1923
		c1.3086,0,2.1635-0.3488,2.5626-1.0501c0.3996-0.6994,0.5989-1.8133,0.5989-3.3398c0-0.9863-0.1276-2.028-0.3842-3.1261
		c-0.2552-1.0971-0.7339-2.3782-1.4361-3.8423c1.1185-0.3809,2.3074-0.7153,3.568-1.0012c1.2625-0.2868,2.4029-0.5094,3.4246-0.6687
		c0.7358,1.6569,1.2536,3.2504,1.5572,4.7797c0.3036,1.5293,0.4554,2.8509,0.4554,3.9662
		C127.3617,59.2762,126.2911,62.4386,124.1513,64.6529z"/>
	<g id="XMLID_34_">
		<g id="XMLID_36_">
			<path id="XMLID_37_" class="st0" d="M292.4947,56.3271c-4.138,0-7.5048-3.3668-7.5048-7.5053
				c0-4.138,3.3669-7.5048,7.5048-7.5048c4.138,0,7.5053,3.3668,7.5053,7.5048C300,52.9603,296.6327,56.3271,292.4947,56.3271z
				 M292.4947,42.4817c-3.4958,0-6.3401,2.8443-6.3401,6.3402c0,3.4963,2.8444,6.3406,6.3401,6.3406
				c3.4963,0,6.3406-2.8444,6.3406-6.3406C298.8353,45.326,295.991,42.4817,292.4947,42.4817z"/>
		</g>
	</g>
	<g id="XMLID_25_">
		<g id="XMLID_27_">
			<path id="XMLID_28_" class="st0" d="M296,51.6606c0,0.2654-0.1442,0.4638-0.2993,0.5961
				c-0.1555,0.1327-0.4095,0.1993-0.6973,0.1993s-0.547-0.0666-0.7435-0.1993c-0.197-0.1322-0.3906-0.3767-0.5648-0.7251
				l-1.1213-2.2069H292v1.8367l0.4807,0.1136c0.0144,0.0829-0.0652,0.1723-0.0619,0.2664c0.0042,0.095-0.0386,0.1835-0.0386,0.2673
				c0,0.0829-0.0242,0.1635-0.0284,0.2575c-0.0032,0.095-0.0354,0.2585-0.0498,0.2585h-2.8169c-0.0074,0-0.013-0.1635-0.0172-0.2585
				c-0.0037-0.094-0.0056-0.179-0.0056-0.2619c0-0.0838,0.0019-0.1701,0.0056-0.2651c0.0042-0.0941-0.1188-0.1824-0.1113-0.2653
				L290,51.1614v-5.2919l-0.6435-0.1136c-0.0074-0.0829,0.0512-0.1723,0.0471-0.2668c-0.0037-0.0945,0.0265-0.1834,0.0265-0.2668
				c0-0.0834,0.018-0.1723,0.0217-0.2673c0.0042-0.0941,0.0178-0.1835,0.0253-0.2664c0.5071-0.0233,1.0168-0.0401,1.5198-0.0512
				c0.5034-0.0112,0.9729-0.0168,1.4046-0.0168c0.9388,0,1.6439,0.183,2.1133,0.5504c0.4694,0.367,0.7046,0.9481,0.7046,1.743
				c0,0.462-0.1171,0.8727-0.3518,1.2322c-0.2347,0.36-0.5564,0.6151-0.9652,0.7665l0.9878,1.8855
				c0.0838,0.1588,0.1709,0.3294,0.2617,0.3825c0.0903,0.0531,0.2114,0.1441,0.3633,0.1441H296V51.6606z M293.7772,46.948
				c0-0.4163-0.1053-0.7209-0.3176-0.9136c-0.2124-0.1933-0.5416-0.2901-0.9877-0.2901c-0.0912,0-0.0424,0.0023-0.2133,0.0061
				C292.0886,45.754,292,45.7595,292,45.767v2.5577h0.4719c0.4233,0,0.7474-0.1335,0.9705-0.3422
				C293.6659,47.7749,293.7772,47.4099,293.7772,46.948z"/>
		</g>
	</g>
</g>
</svg>
