<!-- Generator: Adobe Illustrator 19.0.0, SVG Export Plug-In  -->
<svg version="1.1"
	 xmlns="http://www.w3.org/2000/svg" xmlns:xlink="http://www.w3.org/1999/xlink" xmlns:a="http://ns.adobe.com/AdobeSVGViewerExtensions/3.0/"
	 x="0px" y="0px" width="59.064px" height="48px" viewBox="0 0 59.064 48" style="enable-background:new 0 0 59.064 48;"
	 xml:space="preserve">
<style type="text/css">
	.st0{fill:#F9A51B;}
</style>
<defs>
</defs>
<path id="XMLID_15_" class="st0" d="M59.064,5.682c-2.1731,0.9638-4.5086,1.6153-6.9597,1.9082
	c2.5017-1.4998,4.4233-3.8744,5.3279-6.7042c-2.3414,1.3889-4.9346,2.3972-7.695,2.9405C47.527,1.4714,44.3774,0,40.8924,0
	c-6.6922,0-12.1178,5.4254-12.1178,12.1174c0,0.9497,0.1071,1.8745,0.3138,2.7614c-10.071-0.5052-19-5.3296-24.9764-12.6608
	c-1.0432,1.7897-1.6407,3.871-1.6407,6.0919c0,4.2041,2.1392,7.9131,5.3908,10.0861c-1.9863-0.0629-3.855-0.6079-5.4886-1.5158
	c-0.0011,0.0509-0.0011,0.1015-0.0011,0.1526c0,5.871,4.177,10.7685,9.7202,11.8818c-1.0167,0.2772-2.0871,0.4255-3.1922,0.4255
	c-0.7808,0-1.54-0.0764-2.2801-0.2173c1.5421,4.8134,6.0173,8.3173,11.3199,8.4148c-4.1471,3.25-9.372,5.1876-15.0494,5.1876
	c-0.9782,0-1.9427-0.0576-2.8907-0.17C5.3625,45.994,11.7321,48,18.5754,48c22.2885,0,34.4772-18.4648,34.4772-34.4776
	c0-0.5252-0.0117-1.0476-0.0351-1.5677C55.3851,10.2463,57.4393,8.1121,59.064,5.682z"/>
</svg>
